<svg id="visual" viewBox="0 0 960 540" width="960" height="540" xmlns="http://www.w3.org/2000/svg" xmlns:xlink="http://www.w3.org/1999/xlink" version="1.1"><rect x="0" y="0" width="960" height="540" fill="#ffffff"></rect><defs><linearGradient id="grad1_0" x1="43.8%" y1="0%" x2="100%" y2="100%"><stop offset="14.444444444444446%" stop-color="#3c8cdd" stop-opacity="1"></stop><stop offset="85.55555555555554%" stop-color="#3c8cdd" stop-opacity="1"></stop></linearGradient></defs><defs><linearGradient id="grad1_1" x1="43.8%" y1="0%" x2="100%" y2="100%"><stop offset="14.444444444444446%" stop-color="#3c8cdd" stop-opacity="1"></stop><stop offset="85.55555555555554%" stop-color="#649be2" stop-opacity="1"></stop></linearGradient></defs><defs><linearGradient id="grad1_2" x1="43.8%" y1="0%" x2="100%" y2="100%"><stop offset="14.444444444444446%" stop-color="#83abe7" stop-opacity="1"></stop><stop offset="85.55555555555554%" stop-color="#649be2" stop-opacity="1"></stop></linearGradient></defs><defs><linearGradient id="grad1_3" x1="43.8%" y1="0%" x2="100%" y2="100%"><stop offset="14.444444444444446%" stop-color="#83abe7" stop-opacity="1"></stop><stop offset="85.55555555555554%" stop-color="#9ebbec" stop-opacity="1"></stop></linearGradient></defs><defs><linearGradient id="grad1_4" x1="43.8%" y1="0%" x2="100%" y2="100%"><stop offset="14.444444444444446%" stop-color="#b7ccf1" stop-opacity="1"></stop><stop offset="85.55555555555554%" stop-color="#9ebbec" stop-opacity="1"></stop></linearGradient></defs><defs><linearGradient id="grad1_5" x1="43.8%" y1="0%" x2="100%" y2="100%"><stop offset="14.444444444444446%" stop-color="#b7ccf1" stop-opacity="1"></stop><stop offset="85.55555555555554%" stop-color="#d0ddf6" stop-opacity="1"></stop></linearGradient></defs><defs><linearGradient id="grad1_6" x1="43.8%" y1="0%" x2="100%" y2="100%"><stop offset="14.444444444444446%" stop-color="#e8eefb" stop-opacity="1"></stop><stop offset="85.55555555555554%" stop-color="#d0ddf6" stop-opacity="1"></stop></linearGradient></defs><defs><linearGradient id="grad1_7" x1="43.8%" y1="0%" x2="100%" y2="100%"><stop offset="14.444444444444446%" stop-color="#e8eefb" stop-opacity="1"></stop><stop offset="85.55555555555554%" stop-color="#ffffff" stop-opacity="1"></stop></linearGradient></defs><defs><linearGradient id="grad2_0" x1="0%" y1="0%" x2="56.3%" y2="100%"><stop offset="14.444444444444446%" stop-color="#3c8cdd" stop-opacity="1"></stop><stop offset="85.55555555555554%" stop-color="#3c8cdd" stop-opacity="1"></stop></linearGradient></defs><defs><linearGradient id="grad2_1" x1="0%" y1="0%" x2="56.3%" y2="100%"><stop offset="14.444444444444446%" stop-color="#649be2" stop-opacity="1"></stop><stop offset="85.55555555555554%" stop-color="#3c8cdd" stop-opacity="1"></stop></linearGradient></defs><defs><linearGradient id="grad2_2" x1="0%" y1="0%" x2="56.3%" y2="100%"><stop offset="14.444444444444446%" stop-color="#649be2" stop-opacity="1"></stop><stop offset="85.55555555555554%" stop-color="#83abe7" stop-opacity="1"></stop></linearGradient></defs><defs><linearGradient id="grad2_3" x1="0%" y1="0%" x2="56.3%" y2="100%"><stop offset="14.444444444444446%" stop-color="#9ebbec" stop-opacity="1"></stop><stop offset="85.55555555555554%" stop-color="#83abe7" stop-opacity="1"></stop></linearGradient></defs><defs><linearGradient id="grad2_4" x1="0%" y1="0%" x2="56.3%" y2="100%"><stop offset="14.444444444444446%" stop-color="#9ebbec" stop-opacity="1"></stop><stop offset="85.55555555555554%" stop-color="#b7ccf1" stop-opacity="1"></stop></linearGradient></defs><defs><linearGradient id="grad2_5" x1="0%" y1="0%" x2="56.3%" y2="100%"><stop offset="14.444444444444446%" stop-color="#d0ddf6" stop-opacity="1"></stop><stop offset="85.55555555555554%" stop-color="#b7ccf1" stop-opacity="1"></stop></linearGradient></defs><defs><linearGradient id="grad2_6" x1="0%" y1="0%" x2="56.3%" y2="100%"><stop offset="14.444444444444446%" stop-color="#d0ddf6" stop-opacity="1"></stop><stop offset="85.55555555555554%" stop-color="#e8eefb" stop-opacity="1"></stop></linearGradient></defs><defs><linearGradient id="grad2_7" x1="0%" y1="0%" x2="56.3%" y2="100%"><stop offset="14.444444444444446%" stop-color="#ffffff" stop-opacity="1"></stop><stop offset="85.55555555555554%" stop-color="#e8eefb" stop-opacity="1"></stop></linearGradient></defs><g transform="translate(960, 0)"><path d="M0 324C-48.7 302.3 -97.4 280.6 -148 256.3C-198.6 232.1 -251 205.2 -280.6 162C-310.2 118.8 -317.1 59.4 -324 0L0 0Z" fill="#f3f6fd"></path><path d="M0 283.5C-42.6 264.5 -85.3 245.6 -129.5 224.3C-173.7 203 -219.6 179.5 -245.5 141.8C-271.5 104 -277.5 52 -283.5 0L0 0Z" fill="#dce5f8"></path><path d="M0 243C-36.5 226.7 -73.1 210.5 -111 192.3C-148.9 174 -188.2 153.9 -210.4 121.5C-232.7 89.1 -237.8 44.6 -243 0L0 0Z" fill="#c4d4f4"></path><path d="M0 202.5C-30.5 188.9 -60.9 175.4 -92.5 160.2C-124.1 145 -156.8 128.2 -175.4 101.3C-193.9 74.3 -198.2 37.1 -202.5 0L0 0Z" fill="#abc3ef"></path><path d="M0 162C-24.4 151.2 -48.7 140.3 -74 128.2C-99.3 116 -125.5 102.6 -140.3 81C-155.1 59.4 -158.6 29.7 -162 0L0 0Z" fill="#91b3ea"></path><path d="M0 121.5C-18.3 113.4 -36.5 105.2 -55.5 96.1C-74.5 87 -94.1 76.9 -105.2 60.8C-116.3 44.6 -118.9 22.3 -121.5 0L0 0Z" fill="#74a3e5"></path><path d="M0 81C-12.2 75.6 -24.4 70.2 -37 64.1C-49.6 58 -62.7 51.3 -70.1 40.5C-77.6 29.7 -79.3 14.9 -81 0L0 0Z" fill="#5294e0"></path><path d="M0 40.5C-6.1 37.8 -12.2 35.1 -18.5 32C-24.8 29 -31.4 25.6 -35.1 20.3C-38.8 14.9 -39.6 7.4 -40.5 0L0 0Z" fill="#3c8cdd"></path></g><g transform="translate(0, 540)"><path d="M0 -324C35.1 -278.8 70.2 -233.5 122.5 -212.2C174.8 -190.8 244.2 -193.4 280.6 -162C317 -130.6 320.5 -65.3 324 0L0 0Z" fill="#f3f6fd"></path><path d="M0 -283.5C30.7 -243.9 61.5 -204.3 107.2 -185.7C152.9 -167 213.6 -169.2 245.5 -141.8C277.4 -114.3 280.5 -57.1 283.5 0L0 0Z" fill="#dce5f8"></path><path d="M0 -243C26.3 -209.1 52.7 -175.1 91.9 -159.1C131.1 -143.1 183.1 -145 210.4 -121.5C237.8 -98 240.4 -49 243 0L0 0Z" fill="#c4d4f4"></path><path d="M0 -202.5C22 -174.2 43.9 -146 76.6 -132.6C109.2 -119.3 152.6 -120.9 175.4 -101.3C198.1 -81.6 200.3 -40.8 202.5 0L0 0Z" fill="#abc3ef"></path><path d="M0 -162C17.6 -139.4 35.1 -116.8 61.2 -106.1C87.4 -95.4 122.1 -96.7 140.3 -81C158.5 -65.3 160.3 -32.7 162 0L0 0Z" fill="#91b3ea"></path><path d="M0 -121.5C13.2 -104.5 26.3 -87.6 45.9 -79.6C65.5 -71.6 91.6 -72.5 105.2 -60.8C118.9 -49 120.2 -24.5 121.5 0L0 0Z" fill="#74a3e5"></path><path d="M0 -81C8.8 -69.7 17.6 -58.4 30.6 -53C43.7 -47.7 61 -48.3 70.1 -40.5C79.3 -32.7 80.1 -16.3 81 0L0 0Z" fill="#5294e0"></path><path d="M0 -40.5C4.4 -34.8 8.8 -29.2 15.3 -26.5C21.8 -23.9 30.5 -24.2 35.1 -20.3C39.6 -16.3 40.1 -8.2 40.5 0L0 0Z" fill="#3c8cdd"></path></g></svg>