<svg xmlns="http://www.w3.org/2000/svg" viewBox="0 0 500 500"><g id="freepik--background-simple--inject-1"><path d="M87.24,119.15C115.16,59.7,214.3,68.09,252.56,109.9s50.7,68.59,85.21,53,78.52-11.44,81,38.16S380.9,309.31,316.72,326.66,252.56,405.42,167.62,393c-46.31-6.76-47.36-56.86-40.82-98.31S54.87,188.09,87.24,119.15Z" style="fill:#3C8CDD"></path><path d="M87.24,119.15C115.16,59.7,214.3,68.09,252.56,109.9s50.7,68.59,85.21,53,78.52-11.44,81,38.16S380.9,309.31,316.72,326.66,252.56,405.42,167.62,393c-46.31-6.76-47.36-56.86-40.82-98.31S54.87,188.09,87.24,119.15Z" style="fill:#fff;opacity:0.9"></path></g><g id="freepik--Shadow--inject-1"><ellipse id="freepik--path--inject-1" cx="250" cy="416.24" rx="193.89" ry="11.32" style="fill:#f5f5f5"></ellipse></g><g id="freepik--Plant--inject-1"><path d="M393.55,394s1.09-8,6.24-8.93,3.59-4.77,4.93-6.27,4.84,2.93,1.85,7.24S406,389,404.72,393,393.08,400.7,393.55,394Z" style="fill:#263238"></path><path d="M393.55,394s1.09-8,6.24-8.93,3.59-4.77,4.93-6.27,4.84,2.93,1.85,7.24S406,389,404.72,393,393.08,400.7,393.55,394Z" style="fill:#fff;isolation:isolate;opacity:0.2"></path><path d="M393.76,399.71a.41.41,0,0,1-.19,0,.46.46,0,0,1-.22-.6c0-.08,3.86-8.24,1.84-21.31a54.31,54.31,0,0,0-3.12-11c-2.45-6.68-4.57-12.46.07-22.55,1.43-3.11,2.88-6,4.29-8.81,5.19-10.31,9.29-18.45,6.31-26.51a.45.45,0,0,1,.85-.31c3.12,8.43-1.06,16.72-6.35,27.23-1.41,2.79-2.86,5.68-4.28,8.77-4.48,9.76-2.52,15.1,0,21.87a56.16,56.16,0,0,1,3.16,11.16c2.07,13.36-1.75,21.5-1.91,21.84A.46.46,0,0,1,393.76,399.71Z" style="fill:#263238"></path><path d="M396.73,397.65s3.33-5-1.47-7.59-5.77-.5-8.74-2.36-5.22-6.34-5.72-3.47,2.92,4.51,1.71,5.83S390.58,399.91,396.73,397.65Z" style="fill:#263238"></path><path d="M404.58,312.92s3.24-9.84-4.13-10.05S401.2,311.87,404.58,312.92Z" style="fill:#263238"></path><path d="M398.18,320.5s-2.2-9-7.43-7.07S393,320.66,398.18,320.5Z" style="fill:#263238"></path><path d="M407.05,321.27s-.79-7.14,4.76-7.29S414.89,320.12,407.05,321.27Z" style="fill:#263238"></path><path d="M403.36,335.85s7.45-6.64,10.12-1.7S407.87,340.12,403.36,335.85Z" style="fill:#263238"></path><path d="M390.18,334.67s-1.4-11-7.42-7.57S384.94,335.77,390.18,334.67Z" style="fill:#263238"></path><path d="M384.88,350.46s4.44-11.14-3.81-9.89S379.06,347.76,384.88,350.46Z" style="fill:#263238"></path><path d="M397.55,354.44s7-8.21,12.3-5.61S410.82,359.6,397.55,354.44Z" style="fill:#263238"></path><path d="M391.22,372.63s-5.94-13.18-11.22-8.74S383.37,375,391.22,372.63Z" style="fill:#263238"></path><path d="M399.85,371.86s-1.57-10.23,4.31-9.41S408.5,369.54,399.85,371.86Z" style="fill:#263238"></path><g style="isolation:isolate;opacity:0.2"><path d="M404.58,312.92s3.24-9.84-4.13-10.05S401.2,311.87,404.58,312.92Z" style="fill:#fff"></path><path d="M398.18,320.5s-2.2-9-7.43-7.07S393,320.66,398.18,320.5Z" style="fill:#fff"></path><path d="M407.05,321.27s-.79-7.14,4.76-7.29S414.89,320.12,407.05,321.27Z" style="fill:#fff"></path><path d="M403.36,335.85s7.45-6.64,10.12-1.7S407.87,340.12,403.36,335.85Z" style="fill:#fff"></path><path d="M390.18,334.67s-1.4-11-7.42-7.57S384.94,335.77,390.18,334.67Z" style="fill:#fff"></path><path d="M384.88,350.46s4.44-11.14-3.81-9.89S379.06,347.76,384.88,350.46Z" style="fill:#fff"></path><path d="M397.55,354.44s7-8.21,12.3-5.61S410.82,359.6,397.55,354.44Z" style="fill:#fff"></path><path d="M391.22,372.63s-5.94-13.18-11.22-8.74S383.37,375,391.22,372.63Z" style="fill:#fff"></path><path d="M399.85,371.86s-1.57-10.23,4.31-9.41S408.5,369.54,399.85,371.86Z" style="fill:#fff"></path></g><path d="M401.39,326.52l-.13,0a.46.46,0,0,1-.27-.22c0-.06-2.84-5.44-4.94-6.7a.47.47,0,0,1-.16-.62.46.46,0,0,1,.62-.16c2,1.19,4.33,5.3,5.06,6.64a26.21,26.21,0,0,0,6.95-6.76.45.45,0,1,1,.75.5,25.9,25.9,0,0,1-7.66,7.28A.46.46,0,0,1,401.39,326.52Z" style="fill:#263238"></path><path d="M394.63,340.2h-.08a.5.5,0,0,1-.31-.22c0-.06-3.54-5.94-8-8.58a.45.45,0,1,1,.46-.78c4,2.37,7.18,7,8.09,8.48a25.6,25.6,0,0,1,14.33-4.36.46.46,0,0,1,.44.46.49.49,0,0,1-.47.44c-.08,0-8-.19-14.15,4.47A.47.47,0,0,1,394.63,340.2Z" style="fill:#263238"></path><path d="M390.33,358.29a.48.48,0,0,1-.28-.1c-4.46-3.58-7.88-12.47-8-12.85a.45.45,0,1,1,.84-.32c0,.09,3.35,8.71,7.51,12.27,1.61-.9,9.63-5.22,15.82-5.35a.46.46,0,0,1,.46.45.45.45,0,0,1-.44.46c-6.53.12-15.57,5.32-15.66,5.38A.46.46,0,0,1,390.33,358.29Z" style="fill:#263238"></path><path d="M395.58,377a.47.47,0,0,1-.37-.19,19.46,19.46,0,0,0-9.74-6.33.45.45,0,0,1-.3-.56.46.46,0,0,1,.56-.31,20.66,20.66,0,0,1,10,6.33c3.19-2.2,7.35-10.28,7.39-10.36a.45.45,0,1,1,.8.41c-.18.36-4.62,9-8.07,10.95A.46.46,0,0,1,395.58,377Z" style="fill:#263238"></path><path d="M393.7,396.07s3.24-5.15,6.9-5.89,5.23-4.94,6.58-2.41S404.81,398.7,393.7,396.07Z" style="fill:#263238"></path><polygon points="412.51 416.3 377.15 416.3 374.78 394.49 414.87 394.49 412.51 416.3" style="fill:#3C8CDD"></polygon><polygon points="415.7 398.62 373.96 398.62 373.42 394 416.23 394 415.7 398.62" style="fill:#3C8CDD"></polygon><polygon points="415.7 398.62 373.96 398.62 373.42 394 416.23 394 415.7 398.62" style="fill:#fff;opacity:0.30000000000000004"></polygon></g><g id="freepik--trafic-cone--inject-1"><polygon points="228.33 407.75 214.49 338.82 209.19 338.82 195.34 407.75 185.17 413.98 185.17 415.82 238.17 415.82 238.17 413.98 228.33 407.75" style="fill:#3C8CDD"></polygon><rect x="185.17" y="413.98" width="53" height="2.32" style="isolation:isolate;opacity:0.2"></rect><polygon points="214.49 338.82 209.19 338.82 195.18 407.55 228.16 407.55 214.49 338.82" style="isolation:isolate;opacity:0.2"></polygon><polygon points="223.73 385.25 220.58 369.42 202.95 369.42 199.72 385.25 223.73 385.25" style="fill:#fff;isolation:isolate;opacity:0.8"></polygon></g><g id="freepik--Sign--inject-1"><polygon points="334.53 172.77 264.54 172.77 215.05 222.26 215.05 292.25 264.54 341.74 334.53 341.74 384.02 292.25 384.02 222.26 334.53 172.77" style="fill:#3C8CDD"></polygon><path d="M332.73,336.37H266.35l-46.94-46.93V223.06l46.94-46.93h66.38l46.93,46.93v66.38Zm-65.14-3h63.89l45.18-45.17V224.31l-45.18-45.18H267.59l-45.18,45.18V288.2Z" style="fill:#fff"></path><path d="M250.14,223.41h7.64c5.5,0,9.27,3.32,9.27,8.41s-3.77,8.41-9.27,8.41h-7.64ZM257.59,237c3.34,0,5.52-2,5.52-5.22s-2.18-5.21-5.52-5.21H254V237Z" style="fill:#fff"></path><path d="M268.92,231.82c0-5,3.9-8.7,9.21-8.7s9.2,3.68,9.2,8.7-3.92,8.7-9.2,8.7S268.92,236.82,268.92,231.82Zm14.47,0a5.27,5.27,0,1,0-5.26,5.39A5.13,5.13,0,0,0,283.39,231.82Z" style="fill:#fff"></path><path d="M312.49,223.41v16.82h-3.2L300.9,230v10.21h-3.84V223.41h3.22l8.36,10.22V223.41Z" style="fill:#fff"></path><path d="M315.41,231.82c0-5,3.9-8.7,9.21-8.7s9.2,3.68,9.2,8.7-3.92,8.7-9.2,8.7S315.41,236.82,315.41,231.82Zm14.47,0a5.27,5.27,0,1,0-5.26,5.39A5.13,5.13,0,0,0,329.88,231.82Z" style="fill:#fff"></path><path d="M340,226.58h-5.38v-3.17h14.66v3.17h-5.38v13.65H340Z" style="fill:#fff"></path><path d="M265.7,289.57v3.81H249.81V272.85h15.51v3.82H254.53v4.45h9.53v3.7h-9.53v4.75Z" style="fill:#fff"></path><path d="M288.32,272.85v20.53h-3.9l-10.24-12.46v12.46h-4.69V272.85h3.93l10.21,12.47V272.85Z" style="fill:#fff"></path><path d="M297.44,276.73h-6.57v-3.88h17.89v3.88h-6.57v16.65h-4.75Z" style="fill:#fff"></path><path d="M327.21,289.57v3.81H311.32V272.85h15.51v3.82H316v4.45h9.53v3.7H316v4.75Z" style="fill:#fff"></path><path d="M344.08,293.38l-4-5.72h-4.37v5.72H331V272.85h8.89c5.48,0,8.91,2.85,8.91,7.45a6.66,6.66,0,0,1-4.22,6.48l4.6,6.6Zm-4.46-16.65h-3.87v7.15h3.87c2.91,0,4.37-1.35,4.37-3.58S342.53,276.73,339.62,276.73Z" style="fill:#fff"></path><rect x="240.2" y="247.55" width="118.68" height="17.4" style="fill:#fff"></rect></g><g id="freepik--Character--inject-1"><path d="M140.13,184.46c11.08,3.18,19.38,12.47,28.58,17.81a2.9,2.9,0,0,0-1.19,0c4.27-1.62,8.17-5.32,11.81-8.33,4-3.43,8.19-7.33,12.06-11,.24-.27.59-.45,1.49-.08a10.57,10.57,0,0,1,6.36,5.71c.63,1.38-.08,1.51-.73,2.45l-1.46,1.77a129.16,129.16,0,0,1-16.27,16.56c-3.05,2.42-6,4.75-10,5.91-2.66.93-6.59,0-9-1.24a106.86,106.86,0,0,1-12.26-7.64c-4.24-2.73-8.43-5.92-13.06-7.29-9.95-2.62-6.45-17,3.62-14.7Z" style="fill:#263238"></path><path d="M140.13,184.46c11.08,3.18,19.38,12.47,28.58,17.81a2.9,2.9,0,0,0-1.19,0c4.27-1.62,8.17-5.32,11.81-8.33,4-3.43,8.19-7.33,12.06-11,.24-.27.59-.45,1.49-.08a10.57,10.57,0,0,1,6.36,5.71c.63,1.38-.08,1.51-.73,2.45l-1.46,1.77a129.16,129.16,0,0,1-16.27,16.56c-3.05,2.42-6,4.75-10,5.91-2.66.93-6.59,0-9-1.24a106.86,106.86,0,0,1-12.26-7.64c-4.24-2.73-8.43-5.92-13.06-7.29-9.95-2.62-6.45-17,3.62-14.7Z" style="fill:#fff;opacity:0.2"></path><path d="M155.59,210.49c-2.12-1.37-4.09-2.72-6-4l-2.2-1.47a20.68,20.68,0,0,1,1-6.24A22.9,22.9,0,0,1,155.59,210.49Z" style="opacity:0.2"></path><path d="M162.44,414.08s-12.13-3.57-13-8.35a.83.83,0,0,0-1-.7l-8.81,1.48a1.17,1.17,0,0,0-.9.78l-2.69,8.57,2.5.08.92-1.23,1,1.29c13.52.43,19.37.46,22.07-.3C163,414.52,162.44,414.08,162.44,414.08Z"></path><path d="M151,328.11c-1.68,24.95-.68,77.65-.68,77.65l-12,2.87s-7.12-38.89-8-65.87q-.12-3.79-.11-7.59a388.74,388.74,0,0,0-9.64-44c-2.94-10.74-5.53-19.28-6.93-27.45l35-11.37C150.56,258.48,153.93,284.8,151,328.11Z" style="fill:#263238"></path><path d="M130.29,342.76q-.12-3.79-.11-7.59a388.74,388.74,0,0,0-9.64-44c3.77-10.74,8.57-18.8,13.75-19.74C134.29,271.45,143.49,318.12,130.29,342.76Z" style="opacity:0.4"></path><path d="M149.76,256.46a40.23,40.23,0,0,0-.64-8.29c-.07-.86-40.45.58-43.79,1-4.18.48.86,19.36,4.66,25.62C139.31,274.43,149.23,261.57,149.76,256.46Z" style="fill:#263238"></path><path d="M122.42,414.08s-12.13-3.57-13-8.35a.83.83,0,0,0-1-.7l-8.81,1.48a1.15,1.15,0,0,0-.89.78L96,415.86l2.49.08.92-1.23,1,1.29c13.52.43,19.37.46,22.07-.3C123,414.52,122.42,414.08,122.42,414.08Z"></path><path d="M103.77,334.6c1.51-36.45.08-59.3.58-76.42l33.84-1.12c.71,6.38-1.19,32.84-12.6,74.73C119,355.91,110.26,406,110.26,406l-12.39,1.61S97.8,363.5,103.77,334.6Z" style="fill:#263238"></path><path d="M104.9,187.9a143.29,143.29,0,0,1,29.22-4,16.41,16.41,0,0,1,16.65,14.35c1.88,15-1.41,20.28-.94,43.58a106.85,106.85,0,0,1,1.53,18.19c-.76,3.67-8.77,7.79-8.77,7.79l-4.4-10.78-4.06,10.78s-28-1.32-31.11-3.93c0,0,1.49-23.84-.17-33.37-2.51-9.31-2.42-16.57-5.9-28.91A11.09,11.09,0,0,1,104.9,187.9Z" style="fill:#263238"></path><path d="M151.35,260.05c-.76,3.67-8.76,7.79-8.76,7.79l-4.4-10.78-4.07,10.78s-28-1.32-31.11-3.93c0,0,1.49-23.84-.16-33.37a109.57,109.57,0,0,1-2.4-12.13c-.39-2.38-.78-4.86-1.31-7.55s-1.24-5.81-2.2-9.23a11.1,11.1,0,0,1,8-13.73,143.38,143.38,0,0,1,29.23-4,16.41,16.41,0,0,1,16.64,14.35c1.89,15-1.41,20.28-.93,43.58A107.48,107.48,0,0,1,151.35,260.05Z" style="fill:#fff;opacity:0.2"></path><path d="M102.17,253.73l7.41,4.13L102.34,265s-6.26-4.55-4.38-8.27Z" style="fill:#ebb376"></path><path d="M112.06,266.31l-3,2.08a2.93,2.93,0,0,1-3.79-.35l-3-3,7.24-7.15,3.16,4.31A2.93,2.93,0,0,1,112.06,266.31Z" style="fill:#ebb376"></path><path d="M100.45,218.41c-.39-2.38-.78-4.86-1.31-7.55,2.51-3.81,5-7.11,5-7.11S105,212.76,100.45,218.41Z" style="opacity:0.2"></path><path d="M109.72,202.19c-7.4,8.19-15.34,16.32-21.68,25.32-.11.2-.28.45-.32.54l-.06.1a1.27,1.27,0,0,1,.06-.28,2.49,2.49,0,0,0,.07-1c0-.1,0-.06,0,.06a18.81,18.81,0,0,0,2,4.6,150.67,150.67,0,0,0,9.79,14.7c1.21,1.65,3.5,4.81,4.73,6.41.25.28.42.64-.06,1.53a10.64,10.64,0,0,1-6.38,5.69c-1,.31-1.33.08-1.59-.23l-.84-.85-1.66-1.71c-6.09-6.64-21.61-23.13-19.13-32.53a19.56,19.56,0,0,1,2.33-5.13c6.3-9.93,14-18.64,21.62-27.48,7-7.35,17.87,2.5,11.18,10.21Z" style="fill:#263238"></path><polygon points="111.14 189 123.88 205.49 135.71 224.58 140.26 204.8 136.63 191.35 130.44 184.09 119.35 185.81 109.47 188.17 111.14 189" style="fill:#fff;opacity:0.9"></polygon><path d="M109.72,202.19c-7.4,8.19-15.34,16.32-21.68,25.32-.11.2-.28.45-.32.54l-.06.1a1.27,1.27,0,0,1,.06-.28,2.49,2.49,0,0,0,.07-1c0-.1,0-.06,0,.06a18.81,18.81,0,0,0,2,4.6,150.67,150.67,0,0,0,9.79,14.7c1.21,1.65,3.5,4.81,4.73,6.41.25.28.42.64-.06,1.53a10.64,10.64,0,0,1-6.38,5.69c-1,.31-1.33.08-1.59-.23l-.84-.85-1.66-1.71c-6.09-6.64-21.61-23.13-19.13-32.53a19.56,19.56,0,0,1,2.33-5.13c6.3-9.93,14-18.64,21.62-27.48,7-7.35,17.87,2.5,11.18,10.21Z" style="fill:#fff;opacity:0.2"></path><path d="M123,192.14l5.47,2.92,3.27,23.59,4,5.93,1.58-4.88s-4.73-18.06-6.85-25.32l1.25-3.56-4.92-1.71Z" style="fill:#3C8CDD"></path><path d="M109,187s13.31,8,26.48,36.69c0,0,5-29.94-5-39.55,0,0,6-.74,13.18,6.73l-5.3,4.22,8.2,6.6-10.28,25.27s-12.42-14.67-24.54-21.42l4.2-6.49-11.52-6.33A14.23,14.23,0,0,1,109,187Z" style="fill:#263238"></path><path d="M112.83,169.15a39.64,39.64,0,0,1-1.09,17.11,1.08,1.08,0,0,0,.4,1.16,20.91,20.91,0,0,0,14.52,3.22c6.19-.71,5.59-2.6,3.84-4.58a2.54,2.54,0,0,0-.9-.65c-4.55-2-5.14-5.3-4.22-7.47Z" style="fill:#ebb376"></path><path d="M112.83,169.15l12.55,8.79a4.79,4.79,0,0,0,.32,4.32,9.49,9.49,0,0,1-6.76-1.48c-3.21-2.09-4.57-4.87-5.82-8.88C113.06,171,113,170.12,112.83,169.15Z" style="opacity:0.2"></path><path d="M112.09,184.92l14.68,4.19a21.53,21.53,0,0,0,0-5.5l3.67.48a9.08,9.08,0,0,1,2.44,7.79l-5.4-1.34L123,194.38A24.76,24.76,0,0,1,109,187Z" style="fill:#3C8CDD"></path><path d="M112.09,184.92l14.68,4.19a21.53,21.53,0,0,0,0-5.5l3.67.48a9.08,9.08,0,0,1,2.44,7.79l-5.4-1.34L123,194.38A24.76,24.76,0,0,1,109,187Z" style="fill:#fff;opacity:0.7000000000000001"></path><path d="M128.36,153.09c2.1,2.18,0,5.28.28,7.53s.82,5.18-2.28,2.25S125.1,150.09,128.36,153.09Z" style="fill:#263238"></path><path d="M108.8,164.3c1.47,7.47.55,8.82,4.88,12.15,6.51,5,16,4.89,16.38-2.93.3-7-.65-19.59-8.43-21.54A10.51,10.51,0,0,0,108.8,164.3Z" style="fill:#ebb376"></path><path d="M110.25,169.3c3.54,1.83,4.32-3,4.06-3.39-1.13-1.56-1.17-2.94-.14-6.12s-6.18-7.68-9.86-4.72c-1.9,1.53-1.41,5.05-.41,8.16C105.4,167.93,107.39,167.82,110.25,169.3Z" style="fill:#263238"></path><path d="M106,169.79a7,7,0,0,0,4,3.22c2.14.61,3-1.52,2.22-3.72-.69-2-2.63-4.68-4.69-4.31S104.9,167.83,106,169.79Z" style="fill:#ebb376"></path><path d="M118,163.85c.11.64.41.65.83.58s.8-.22.69-.86-.54-1.09-1-1S117.91,163.21,118,163.85Z" style="fill:#263238"></path><path d="M126,163.29c.11.64.41.66.83.59s.79-.22.68-.86-.54-1.1-.95-1S125.84,162.65,126,163.29Z" style="fill:#263238"></path><path d="M124.7,163.17a17.64,17.64,0,0,0,2.83,4,2.91,2.91,0,0,1-2.32.73Z" style="fill:#d58745"></path><path d="M116.09,160.44a.33.33,0,0,1-.13-.13.37.37,0,0,1,.13-.52,3.82,3.82,0,0,1,3.48-.33.38.38,0,0,1-.33.69h0a3.07,3.07,0,0,0-2.76.29A.39.39,0,0,1,116.09,160.44Z" style="fill:#263238"></path><path d="M128.81,159a.38.38,0,0,1-.34.11,3,3,0,0,0-2.66.7.37.37,0,0,1-.53,0,.38.38,0,0,1,0-.54,3.77,3.77,0,0,1,3.34-.92.39.39,0,0,1,.31.45A.43.43,0,0,1,128.81,159Z" style="fill:#263238"></path><path d="M127,172.55a.37.37,0,0,1-.29-.14h0c-.07-.09-1.76-2.15-5.91-1a.38.38,0,0,1-.46-.27.37.37,0,0,1,.26-.46c4.66-1.3,6.62,1.16,6.7,1.26a.37.37,0,0,1-.07.53A.39.39,0,0,1,127,172.55Z" style="fill:#263238"></path><path d="M116.63,161.79a5.46,5.46,0,0,1,5.92-.63c1,.53.28,5.64-3,5.48S116,162.49,116.63,161.79Z" style="fill:#263238"></path><path d="M129.64,159.9a3.62,3.62,0,0,0-4.66.84c-.55.74,1.48,5.44,3.9,4.51S130.37,160.41,129.64,159.9Z" style="fill:#263238"></path><path d="M122.29,162.37a.37.37,0,0,1-.27-.12.37.37,0,0,1,0-.52,2.72,2.72,0,0,1,3.62-.37.38.38,0,0,1-.48.58c-1.21-1-2.56.27-2.62.32A.36.36,0,0,1,122.29,162.37Z" style="fill:#263238"></path><path d="M110,164a.38.38,0,0,1-.37-.32.37.37,0,0,1,.31-.42l6.92-1.09a.38.38,0,0,1,.43.31.38.38,0,0,1-.31.43L110.09,164Z" style="fill:#263238"></path><path d="M127.53,155.22s1-4.15-.59-6.63-13.35-3.16-18.79,1-3.56,9.4-3,9.3a45.19,45.19,0,0,1,5.34,1.09s2.28-4.95,3.86-5.94,6.13.89,7.81,1.59,2.38-1.78,2.38-1.78A21.12,21.12,0,0,1,127.53,155.22Z" style="fill:#263238"></path><path d="M198,187.58l7.89-3.13-6.25-8s-6.8,3.7-5.41,7.63Z" style="fill:#ebb376"></path><path d="M209.45,176.39,206.79,174a2.94,2.94,0,0,0-3.81-.15l-3.34,2.62,6.25,8,3.7-3.86A2.94,2.94,0,0,0,209.45,176.39Z" style="fill:#ebb376"></path><path d="M192.08,183.15l1.46-1.26,6.19,6.17-1.74,2S192.85,186.5,192.08,183.15Z" style="fill:#3C8CDD"></path><path d="M192.08,183.15l1.46-1.26,6.19,6.17-1.74,2S192.85,186.5,192.08,183.15Z" style="fill:#fff;opacity:0.7000000000000001"></path><rect x="201.35" y="141.01" width="3.39" height="57.73" style="fill:#263238"></rect><circle cx="203.02" cy="128.8" r="26.77" transform="translate(31.02 296.8) rotate(-76.72)" style="fill:#3C8CDD"></circle><rect x="180.64" y="121.61" width="44.75" height="14.39" style="fill:#fff"></rect><path d="M184.37,132.62l.75-1.66a5.56,5.56,0,0,0,3.14,1c1.31,0,1.84-.44,1.84-1,0-1.79-5.54-.56-5.54-4.1,0-1.61,1.31-3,4-3a6.49,6.49,0,0,1,3.31.84l-.68,1.67a5.43,5.43,0,0,0-2.64-.74c-1.31,0-1.81.49-1.81,1.08,0,1.76,5.53.55,5.53,4,0,1.59-1.31,2.95-4,2.95A6.81,6.81,0,0,1,184.37,132.62Z" style="fill:#3C8CDD"></path><path d="M195.63,125.84h-3V124h8.29v1.8h-3v7.72h-2.21Z" style="fill:#3C8CDD"></path><path d="M201.33,128.8a5.22,5.22,0,1,1,5.21,4.92A4.93,4.93,0,0,1,201.33,128.8Zm8.19,0a3,3,0,1,0-3,3A2.9,2.9,0,0,0,209.52,128.8Z" style="fill:#3C8CDD"></path><path d="M221.67,127.5c0,2.12-1.59,3.44-4.14,3.44h-1.91v2.62h-2.21V124h4.12C220.08,124,221.67,125.36,221.67,127.5Zm-2.23,0c0-1-.68-1.66-2-1.66h-1.79v3.3h1.79C218.76,129.14,219.44,128.53,219.44,127.5Z" style="fill:#3C8CDD"></path><path d="M203,153.41a24.61,24.61,0,1,1,24.61-24.61A24.64,24.64,0,0,1,203,153.41Zm0-46.22a21.61,21.61,0,1,0,21.61,21.61A21.64,21.64,0,0,0,203,107.19Z" style="fill:#fff"></path></g></svg>
